<?xml version="1.0" encoding="UTF-8" standalone="no"?><!DOCTYPE svg PUBLIC "-//W3C//DTD SVG 1.1//EN" "http://www.w3.org/Graphics/SVG/1.1/DTD/svg11.dtd"><svg width="18px" height="18px" version="1.1" xmlns="http://www.w3.org/2000/svg" xmlns:xlink="http://www.w3.org/1999/xlink" xml:space="preserve" xmlns:serif="http://www.serif.com/" style="fill-rule:evenodd;clip-rule:evenodd;stroke-linejoin:round;stroke-miterlimit:2;"><path d="M10.919,17.755C8.719,17.871 6.658,16.298 6.1,14.099C5.714,12.674 5.959,11.15 6.772,9.918C6.822,9.844 6.854,9.719 6.972,9.741C7.06,9.763 7.042,9.87 7.05,9.94C7.272,11.612 8.226,12.777 9.673,13.539C11.732,14.617 13.825,14.563 15.907,13.565C16.107,13.469 16.33,13.263 16.542,13.491C16.754,13.719 16.542,13.951 16.422,14.147C15.311,15.85 13.881,17.146 11.836,17.629C11.636,17.675 11.436,17.709 11.236,17.739C11.142,17.749 11.031,17.755 10.919,17.755Z" style="fill-rule:nonzero;"/><path d="M9.121,7.447C9.579,7.543 6.892,5.314 3.585,5.816C2.434,5.99 -0.213,6.988 0.009,10.546C0.407,16.932 5.589,17.865 7.314,17.999C7.319,18 7.325,18 7.331,18C7.434,18 7.522,17.919 7.53,17.815C7.535,17.756 7.513,17.697 7.47,17.655C6.558,16.774 4.037,15.218 4.603,12.012C5.111,9.115 7.19,7.04 9.121,7.447Z" style="fill-rule:nonzero;"/><path d="M11.178,11.44C11.93,11.7 13.132,11.84 14.929,11.392L14.941,11.392C16.274,10.889 17.238,9.706 17.462,8.299C17.97,4.826 15.043,0.166 9.921,0.006C2.82,-0.194 0.87,4.433 0.499,5.574C0.496,5.582 0.495,5.59 0.495,5.599C0.495,5.641 0.53,5.677 0.573,5.677C0.59,5.677 0.607,5.671 0.621,5.66C1.446,5 4.791,2.723 8.941,5.332C11.292,7.203 10.999,9.081 10.575,10.088C10.519,10.215 10.491,10.352 10.491,10.49C10.491,10.892 10.733,11.257 11.104,11.412L11.178,11.44Z" style="fill-rule:nonzero;"/></svg>