<?xml version="1.0" encoding="UTF-8" standalone="no"?><!DOCTYPE svg PUBLIC "-//W3C//DTD SVG 1.1//EN" "http://www.w3.org/Graphics/SVG/1.1/DTD/svg11.dtd"><svg width="18px" height="18px" version="1.1" xmlns="http://www.w3.org/2000/svg" xmlns:xlink="http://www.w3.org/1999/xlink" xml:space="preserve" xmlns:serif="http://www.serif.com/" style="fill-rule:evenodd;clip-rule:evenodd;stroke-linejoin:round;stroke-miterlimit:2;"><path d="M3.66,0.981C3.66,0.981 0.033,3.474 0,9C-0.032,14.423 3.576,18 9,18C14.424,18 18,13.57 18,9C18,5.63 16.309,3.299 14.352,1.944C15.234,3.346 16.133,4.802 16.428,7.468C15.744,5.755 14.845,4.066 13,3C10.959,1.821 12.119,0.105 11.916,-0.45C10.35,0.439 8.981,2.751 9,5C9,5 10.086,4.618 11.25,5.04C13.069,5.7 13.252,6.839 13.453,7.237C13.453,7.237 12.69,6.48 11.97,6.3C11.334,6.141 9.994,6.469 9.994,6.469C9.994,6.469 11.641,6.723 12.15,7.47C12.672,8.236 13.163,9.476 12.728,10.743C12.199,12.288 11.058,13 9,13C6.587,13 5.092,11.279 5.04,9.81C5.031,9.564 5.324,9.144 6.12,8.73C6.916,8.315 8.24,8.495 8.456,8.391C8.672,8.286 9.239,7.401 9.225,7.237C9.211,7.074 8.395,7.078 7.56,6.57C6.725,6.062 6.886,5.911 6.12,5.4C5.85,5.22 5.849,4.975 5.85,4.32C5.851,3.665 6.209,2.899 6.299,2.629C5.939,2.809 5.342,3.471 4.86,3.87C4.378,4.268 4.122,5.072 4,5C3.878,4.928 3.531,4.254 3.51,3.78C3.453,2.485 3.662,1.161 3.66,0.981Z"/></svg>