<?xml version="1.0" encoding="UTF-8" standalone="no"?><!DOCTYPE svg PUBLIC "-//W3C//DTD SVG 1.1//EN" "http://www.w3.org/Graphics/SVG/1.1/DTD/svg11.dtd"><svg width="18px" height="18px" version="1.1" xmlns="http://www.w3.org/2000/svg" xmlns:xlink="http://www.w3.org/1999/xlink" xml:space="preserve" xmlns:serif="http://www.serif.com/" style="fill-rule:evenodd;clip-rule:evenodd;stroke-linejoin:round;stroke-miterlimit:2;"><path d="M8.97,0C12.371,-0.012 15.5,1.905 17.034,4.94L9.584,4.55C7.474,4.43 5.466,5.614 4.784,7.602L2.003,3.344C3.703,1.239 6.266,0.009 8.972,0L8.97,0ZM1.469,4.068L4.854,10.726C5.802,12.6 7.826,13.748 9.914,13.356L7.602,17.886C3.244,17.201 0,13.407 0,8.995C0,7.245 0.51,5.532 1.469,4.068ZM17.402,5.764C17.8,6.797 18.004,7.894 18.004,9C18.004,13.937 13.942,18 9.004,18C8.836,18 8.668,17.995 8.5,17.986L12.566,11.73C13.722,9.952 13.702,7.632 12.326,6.026L17.402,5.764ZM9.002,5.964C10.667,5.964 12.036,7.334 12.036,8.998C12.036,10.662 10.667,12.032 9.002,12.032C7.339,12.032 5.97,10.664 5.968,9C5.968,8.999 5.968,8.997 5.968,8.996C5.968,7.334 7.336,5.966 8.998,5.966C9,5.966 9.001,5.966 9.002,5.966L9.002,5.964Z" style="fill-rule:nonzero;"/></svg>