<?xml version="1.0" encoding="UTF-8" standalone="no"?><!DOCTYPE svg PUBLIC "-//W3C//DTD SVG 1.1//EN" "http://www.w3.org/Graphics/SVG/1.1/DTD/svg11.dtd"><svg width="18px" height="18px" version="1.1" xmlns="http://www.w3.org/2000/svg" xmlns:xlink="http://www.w3.org/1999/xlink" xml:space="preserve" xmlns:serif="http://www.serif.com/" style="fill-rule:evenodd;clip-rule:evenodd;stroke-linecap:square;stroke-miterlimit:5;"><path d="M14,7L13,6L5,6L4,7L4,11L5,12L13,12L14,11L14,7Z" style="fill:none;stroke:#000;stroke-width:2px;"/><path d="M12,3L11,3" style="fill:none;stroke:#000;stroke-width:2px;stroke-miterlimit:2;"/><path d="M6,15L7,15" style="fill:none;stroke:#000;stroke-width:2px;stroke-miterlimit:2;"/><path d="M8,3L6,3" style="fill:none;stroke:#000;stroke-width:2px;stroke-miterlimit:2;"/><path d="M10,15L12,15" style="fill:none;stroke:#000;stroke-width:2px;stroke-miterlimit:2;"/><path d="M3,3L2.041,3L1,4L1,5" style="fill:none;stroke:#000;stroke-width:2px;stroke-miterlimit:2;"/><path d="M15,15L16,15L17,14L17,13" style="fill:none;stroke:#000;stroke-width:2px;stroke-miterlimit:2;"/><path d="M1,8L1,10" style="fill:none;stroke:#000;stroke-width:2px;stroke-miterlimit:2;"/><path d="M17,10L17,8" style="fill:none;stroke:#000;stroke-width:2px;stroke-miterlimit:2;"/></svg>