<?xml version="1.0" encoding="UTF-8" standalone="no"?><!DOCTYPE svg PUBLIC "-//W3C//DTD SVG 1.1//EN" "http://www.w3.org/Graphics/SVG/1.1/DTD/svg11.dtd"><svg width="18px" height="18px" version="1.1" xmlns="http://www.w3.org/2000/svg" xmlns:xlink="http://www.w3.org/1999/xlink" xml:space="preserve" xmlns:serif="http://www.serif.com/" style="fill-rule:evenodd;clip-rule:evenodd;stroke-linecap:square;stroke-miterlimit:5;"><path d="M14,2L14,6" style="fill:none;stroke:#000;stroke-width:2px;"/><path d="M16,3.959L12,4" style="fill:none;stroke:#000;stroke-width:2px;"/><path d="M2.828,8.828C1.724,7.724 1.724,5.933 2.828,4.829C2.829,4.829 2.829,4.829 2.829,4.828C3.933,3.724 5.724,3.724 6.828,4.828C7.472,5.472 8.185,6.185 8.829,6.829C9.933,7.933 9.933,9.724 8.829,10.828C8.829,10.829 8.829,10.829 8.828,10.829C7.724,11.933 5.933,11.933 4.829,10.829C4.185,10.185 3.472,9.472 2.828,8.828Z" style="fill:none;stroke:#000;stroke-width:2px;"/><path d="M6.828,12.828C5.724,11.724 5.724,9.933 6.828,8.829C6.829,8.829 6.829,8.829 6.829,8.828C7.933,7.724 9.724,7.724 10.828,8.828C11.472,9.472 12.185,10.185 12.829,10.829C13.933,11.933 13.933,13.724 12.829,14.828C12.829,14.829 12.829,14.829 12.828,14.829C11.724,15.933 9.933,15.933 8.829,14.829C8.185,14.185 7.472,13.472 6.828,12.828Z" style="fill:none;stroke:#000;stroke-width:2px;"/></svg>