<?xml version="1.0" encoding="UTF-8" standalone="no"?><!DOCTYPE svg PUBLIC "-//W3C//DTD SVG 1.1//EN" "http://www.w3.org/Graphics/SVG/1.1/DTD/svg11.dtd"><svg width="18px" height="18px" version="1.1" xmlns="http://www.w3.org/2000/svg" xmlns:xlink="http://www.w3.org/1999/xlink" xml:space="preserve" xmlns:serif="http://www.serif.com/" style="fill-rule:evenodd;clip-rule:evenodd;stroke-linecap:square;stroke-miterlimit:5;"><path d="M14,5C14,2.239 12.761,1 10,1C10,1 8,1 8,1C5.239,1 4,2.239 4,5C4,6.911 4,10.089 4,12C4,14.761 6.239,17 9,17C9,17 9,17 9,17C11.761,17 14,14.761 14,12C14,10.089 14,6.911 14,5Z" style="fill:none;stroke:#000;stroke-width:2px;"/><path d="M9,4L9,9" style="fill:none;stroke:#000;stroke-width:2px;"/><path d="M11,9L7,9" style="fill:none;stroke:#000;stroke-width:2px;"/></svg>