<?xml version="1.0" encoding="UTF-8" standalone="no"?><!DOCTYPE svg PUBLIC "-//W3C//DTD SVG 1.1//EN" "http://www.w3.org/Graphics/SVG/1.1/DTD/svg11.dtd"><svg width="18px" height="18px" version="1.1" xmlns="http://www.w3.org/2000/svg" xmlns:xlink="http://www.w3.org/1999/xlink" xml:space="preserve" xmlns:serif="http://www.serif.com/" style="fill-rule:evenodd;clip-rule:evenodd;stroke-linecap:square;stroke-miterlimit:5;"><path d="M16.938,13L15.812,7C15.369,5.275 13.865,4 12.002,4C11.677,4 11.342,5 11,5C9.7,5 8.3,5 7,5C6.658,5 6.323,4 5.998,4C4.135,4 2.569,5.275 2.126,7L1,13C0.724,14.104 1.396,15.224 2.5,15.5C3.39,15.723 4.291,15.328 4.751,14.589L7,12C8.279,12 9.656,12 10.938,12C10.938,12 13.187,14.589 13.187,14.589C13.65,15.317 14.555,15.721 15.438,15.5C16.542,15.224 17.214,14.104 16.938,13Z" style="fill:none;stroke:#000;stroke-width:2px;"/><path d="M5,9L7,9" style="fill:none;stroke:#000;stroke-width:2px;"/><circle cx="10.5" cy="9.5" r="0.5" style="fill:none;stroke:#000;stroke-width:1px;"/><circle cx="12.5" cy="7.5" r="0.5" style="fill:none;stroke:#000;stroke-width:1px;"/><path d="M6,10L6,8" style="fill:none;stroke:#000;stroke-width:2px;"/></svg>