<?xml version="1.0" encoding="UTF-8" standalone="no"?><!DOCTYPE svg PUBLIC "-//W3C//DTD SVG 1.1//EN" "http://www.w3.org/Graphics/SVG/1.1/DTD/svg11.dtd"><svg width="18px" height="18px" version="1.1" xmlns="http://www.w3.org/2000/svg" xmlns:xlink="http://www.w3.org/1999/xlink" xml:space="preserve" xmlns:serif="http://www.serif.com/" style="fill-rule:evenodd;clip-rule:evenodd;stroke-linejoin:round;stroke-miterlimit:2;"><circle cx="3" cy="8" r="2.25"/><circle cx="13" cy="3" r="2.25"/><path d="M4.43,10.637C5.264,12.614 7.221,14.003 9.5,14.003C9.668,14.003 9.835,13.995 10,13.98C10,13.987 10,13.993 10,14C10,14.725 10.258,15.39 10.686,15.909C10.3,15.971 9.904,16.003 9.5,16.003C6.214,16.003 3.419,13.885 2.406,10.941C2.598,10.98 2.797,11 3,11C3.518,11 4.005,10.869 4.43,10.637ZM15.707,4.294C16.523,5.494 17,6.943 17,8.503C17,10.061 16.524,11.509 15.708,12.709C15.406,12.077 14.889,11.566 14.251,11.273C14.727,10.459 15,9.512 15,8.503C15,7.491 14.726,6.542 14.249,5.728C14.887,5.435 15.404,4.926 15.707,4.294ZM2.866,5.003C4.125,2.624 6.624,1.003 9.5,1.003C9.902,1.003 10.297,1.034 10.683,1.095C10.256,1.614 10,2.277 10,3C10,3.008 10,3.017 10,3.025C9.835,3.01 9.668,3.003 9.5,3.003C7.523,3.003 5.789,4.048 4.819,5.615C4.314,5.229 3.684,5 3,5C2.955,5 2.91,5.001 2.866,5.003Z"/><circle cx="13" cy="14" r="2.25"/></svg>