<?xml version="1.0" encoding="UTF-8" standalone="no"?><!DOCTYPE svg PUBLIC "-//W3C//DTD SVG 1.1//EN" "http://www.w3.org/Graphics/SVG/1.1/DTD/svg11.dtd"><svg width="18px" height="18px" version="1.1" xmlns="http://www.w3.org/2000/svg" xmlns:xlink="http://www.w3.org/1999/xlink" xml:space="preserve" xmlns:serif="http://www.serif.com/" style="fill-rule:evenodd;clip-rule:evenodd;stroke-linejoin:round;stroke-miterlimit:2;"><path d="M9,-0C8.19,1.985 7.623,3.468 7,5C7.553,5.586 9.407,7.178 10.254,8C9.087,7.827 6.88,7.027 6.276,6.52C5.122,8.927 3.668,11.41 -0,18C2.883,16.336 4.917,15.392 7,15C6.911,14.615 6.825,14.031 6.822,13.561C6.811,11.83 7.446,10.029 9,10C10.554,9.971 11.334,11.618 11.194,13.605C11.161,14.065 11.068,14.69 11,15C13.06,15.403 15.158,16.361 18.001,18.003C17.441,16.97 17.05,16.205 16.572,15.319C15.819,14.735 13.602,12.822 12,12C13.111,12.073 15.386,13.631 16,14C11.14,4.952 10.666,3.911 9,-0Z"/></svg>