<?xml version="1.0" encoding="UTF-8" standalone="no"?><!DOCTYPE svg PUBLIC "-//W3C//DTD SVG 1.1//EN" "http://www.w3.org/Graphics/SVG/1.1/DTD/svg11.dtd"><svg width="18px" height="18px" version="1.1" xmlns="http://www.w3.org/2000/svg" xmlns:xlink="http://www.w3.org/1999/xlink" xml:space="preserve" xmlns:serif="http://www.serif.com/" style="fill-rule:evenodd;clip-rule:evenodd;stroke-linejoin:round;stroke-miterlimit:2;"><g><path d="M17.831,7.304C18.041,8.405 17.318,9.468 16.217,9.678C15.117,9.888 14.053,9.165 13.843,8.065C13.633,6.965 14.356,5.901 15.457,5.691C16.557,5.481 17.621,6.204 17.831,7.304Z"/><path d="M0.868,5.161C1.345,4.148 2.556,3.712 3.569,4.189C4.583,4.666 5.018,5.876 4.541,6.89C4.064,7.903 2.854,8.339 1.841,7.862C0.827,7.385 0.391,6.175 0.868,5.161Z"/><path d="M2.848,15.541C2.032,14.774 1.991,13.489 2.758,12.672C3.525,11.855 4.811,11.815 5.627,12.582C6.444,13.349 6.484,14.634 5.717,15.451C4.951,16.267 3.665,16.308 2.848,15.541Z"/><path d="M3.362,8.554C2.895,8.676 2.393,8.67 1.911,8.516C2,9.695 2.239,10.911 2.594,12.038C2.987,11.718 3.452,11.529 3.931,11.473C3.643,10.535 3.445,9.532 3.362,8.554Z"/><path d="M9.794,14.578C8.813,14.562 7.799,14.44 6.844,14.217C6.816,14.698 6.655,15.174 6.36,15.585C7.507,15.865 8.736,16.013 9.916,16.023C9.735,15.552 9.699,15.051 9.794,14.578Z"/><path d="M14.562,9.959C14.244,10.889 13.814,11.817 13.305,12.658C13.754,12.833 14.157,13.134 14.456,13.542C15.078,12.535 15.601,11.41 15.976,10.288C15.471,10.315 14.983,10.195 14.562,9.959Z"/><path d="M12.394,2.758C12.264,3.247 11.998,3.673 11.644,4C12.429,4.59 13.178,5.284 13.819,6.026C14.125,5.653 14.534,5.363 15.015,5.204C14.251,4.303 13.344,3.461 12.394,2.758Z"/><path d="M7.263,2.098C6.168,2.547 5.084,3.151 4.12,3.838C4.545,4.113 4.869,4.497 5.071,4.935C5.875,4.37 6.769,3.871 7.675,3.49C7.415,3.084 7.265,2.604 7.263,2.098Z"/><path d="M11.272,12.711C11.734,12.501 12.231,12.436 12.706,12.502C12.49,11.123 12.25,9.746 11.987,8.371C11.481,8.295 10.975,8.222 10.468,8.153C10.765,9.67 11.033,11.19 11.272,12.711ZM11.152,4.358C10.734,4.594 10.248,4.717 9.741,4.691C9.797,4.942 9.853,5.194 9.908,5.446C10.418,5.512 10.928,5.581 11.436,5.653C11.344,5.221 11.249,4.79 11.152,4.358Z"/><path d="M6.164,12.301C6.507,12.675 6.723,13.128 6.807,13.6C8.051,12.967 9.285,12.313 10.51,11.638C10.426,11.134 10.339,10.63 10.248,10.126C8.898,10.877 7.536,11.602 6.164,12.301ZM13.316,8.361C13.094,8.493 12.872,8.624 12.65,8.754C12.744,9.26 12.836,9.766 12.924,10.272C13.306,10.051 13.688,9.827 14.068,9.601C13.715,9.276 13.448,8.852 13.316,8.361Z"/><path d="M4.538,11.471C5.015,11.526 5.48,11.711 5.876,12.03C5.978,11.793 6.081,11.557 6.184,11.321C5.81,10.968 5.439,10.613 5.069,10.256C4.89,10.66 4.713,11.065 4.538,11.471ZM7.322,8.802C7.38,8.678 7.554,8.306 7.554,8.306C8.134,7.073 8.734,5.851 9.352,4.641C8.854,4.54 8.414,4.301 8.068,3.968C7.459,5.158 6.869,6.359 6.298,7.571L6.221,7.734C6.586,8.092 6.953,8.448 7.322,8.802Z"/><path d="M9.982,13.995C10.183,13.559 10.504,13.175 10.931,12.898C10.737,12.728 10.544,12.558 10.351,12.387C9.9,12.633 9.447,12.877 8.993,13.118C9.321,13.412 9.651,13.704 9.982,13.995ZM4.974,7.314C4.724,7.757 4.36,8.101 3.937,8.328C4.923,9.315 5.927,10.287 6.949,11.244C7.402,11.008 7.854,10.769 8.305,10.527C7.173,9.475 6.062,8.404 4.974,7.314Z"/><path d="M5.26,5.512C5.355,5.982 5.323,6.482 5.141,6.957C5.398,6.981 5.655,7.006 5.912,7.031C6.132,6.567 6.356,6.103 6.582,5.642C6.142,5.597 5.701,5.553 5.26,5.512ZM13.243,7.978C13.185,7.473 13.277,6.98 13.485,6.548C12.108,6.329 10.725,6.132 9.337,5.957C9.109,6.415 8.883,6.874 8.66,7.335C10.194,7.521 11.722,7.735 13.243,7.978Z"/><path d="M13.332,16.865C12.35,17.405 11.115,17.046 10.575,16.064C10.036,15.083 10.394,13.848 11.376,13.308C12.358,12.768 13.593,13.127 14.132,14.109C14.672,15.09 14.313,16.326 13.332,16.865Z"/><path d="M10.128,0.071C11.239,0.211 12.028,1.228 11.887,2.339C11.747,3.45 10.731,4.239 9.619,4.098C8.508,3.958 7.72,2.942 7.86,1.83C8,0.719 9.017,-0.069 10.128,0.071Z"/></g></svg>