<?xml version="1.0" encoding="UTF-8" standalone="no"?><!DOCTYPE svg PUBLIC "-//W3C//DTD SVG 1.1//EN" "http://www.w3.org/Graphics/SVG/1.1/DTD/svg11.dtd"><svg width="18px" height="18px" version="1.1" xmlns="http://www.w3.org/2000/svg" xmlns:xlink="http://www.w3.org/1999/xlink" xml:space="preserve" xmlns:serif="http://www.serif.com/" style="fill-rule:evenodd;clip-rule:evenodd;stroke-linecap:square;stroke-miterlimit:5;"><path d="M11,2L5,8C3.595,9.405 3.595,11.595 5,13C6.405,14.405 8.595,14.405 10,13L16,7C17.406,5.595 17.406,3.405 16,2C14.595,0.595 12.406,0.595 11,2Z" style="fill:none;stroke:#000;stroke-width:2px;"/><path d="M15,4.5C15,3.672 14.328,3 13.5,3C12.672,3 12,3.672 12,4.5C12,5.328 12.672,6 13.5,6C14.328,6 15,5.328 15,4.5Z"/><path d="M5.08,7.414C4.463,7.275 3.847,7.255 3.131,7.294C2.356,7.338 1.72,7.473 1.183,7.622" style="fill:none;stroke:#000;stroke-width:2px;"/><path d="M10.378,16.817C10.546,16.28 10.689,15.484 10.725,14.849C10.765,14.153 10.725,13.576 10.626,12.92" style="fill:none;stroke:#000;stroke-width:2px;"/><path d="M7,11L2,16" style="fill:none;stroke:#000;stroke-width:2px;"/></svg>