<?xml version="1.0" encoding="UTF-8" standalone="no"?><!DOCTYPE svg PUBLIC "-//W3C//DTD SVG 1.1//EN" "http://www.w3.org/Graphics/SVG/1.1/DTD/svg11.dtd"><svg width="18px" height="18px" version="1.1" xmlns="http://www.w3.org/2000/svg" xmlns:xlink="http://www.w3.org/1999/xlink" xml:space="preserve" xmlns:serif="http://www.serif.com/" style="fill-rule:evenodd;clip-rule:evenodd;stroke-linecap:square;stroke-miterlimit:5;"><path d="M5,9.408C5,7.856 4.104,6.597 3,6.597C1.896,6.597 1,7.856 1,9.408C1,10.96 1.896,12.219 3,12.219C4.104,12.219 5,10.96 5,9.408Z" style="fill:none;stroke:#000;stroke-width:2px;"/><path d="M17,9.408C17,7.856 16.104,6.597 15,6.597C13.896,6.597 13,7.856 13,9.408C13,10.96 13.896,12.219 15,12.219C16.104,12.219 17,10.96 17,9.408Z" style="fill:none;stroke:#000;stroke-width:2px;"/><path d="M6,10L7.498,12L9,10L10.503,12L12,10" style="fill:none;stroke:#000;stroke-width:2px;"/></svg>