<?xml version="1.0" encoding="UTF-8" standalone="no"?><!DOCTYPE svg PUBLIC "-//W3C//DTD SVG 1.1//EN" "http://www.w3.org/Graphics/SVG/1.1/DTD/svg11.dtd"><svg width="18px" height="18px" version="1.1" xmlns="http://www.w3.org/2000/svg" xmlns:xlink="http://www.w3.org/1999/xlink" xml:space="preserve" xmlns:serif="http://www.serif.com/" style="fill-rule:evenodd;clip-rule:evenodd;stroke-linecap:square;stroke-miterlimit:5;"><path d="M7,13L11,13" style="fill:none;stroke:#000;stroke-width:2px;"/><path d="M6.622,4.691C7.243,4.691 7.747,5.194 7.747,5.815C7.747,6.436 7.243,6.94 6.622,6.94L1,6.94" style="fill:none;stroke:#000;stroke-width:2px;"/><path d="M15.876,4.691C16.497,4.691 17,5.194 17,5.815C17,6.436 16.497,6.94 15.876,6.94L10.253,6.94" style="fill:none;stroke:#000;stroke-width:2px;"/><path d="M5.486,9.47C5.486,8.918 5.038,8.47 4.486,8.47C3.934,8.47 3.486,8.918 3.486,9.47C3.486,10.022 3.934,10.47 4.486,10.47C5.038,10.47 5.486,10.022 5.486,9.47Z" style="fill:none;stroke:#000;stroke-width:2px;"/><path d="M14.5,9.5C14.5,8.948 14.052,8.5 13.5,8.5C12.948,8.5 12.5,8.948 12.5,9.5C12.5,10.052 12.948,10.5 13.5,10.5C14.052,10.5 14.5,10.052 14.5,9.5Z" style="fill:none;stroke:#000;stroke-width:2px;"/></svg>