<?xml version="1.0" encoding="UTF-8" standalone="no"?><!DOCTYPE svg PUBLIC "-//W3C//DTD SVG 1.1//EN" "http://www.w3.org/Graphics/SVG/1.1/DTD/svg11.dtd"><svg width="18px" height="18px" version="1.1" xmlns="http://www.w3.org/2000/svg" xmlns:xlink="http://www.w3.org/1999/xlink" xml:space="preserve" xmlns:serif="http://www.serif.com/" style="fill-rule:evenodd;clip-rule:evenodd;stroke-linecap:square;stroke-miterlimit:5;"><path d="M14,12L4,12L4,13.014C4,15.214 5.786,17 7.986,17L10.014,17C12.214,17 14,15.214 14,13.014L14,12ZM4,6L14,6L14,4.986C14,2.786 12.214,1 10.014,1L7.986,1C5.786,1 4,2.786 4,4.986L4,6Z" style="fill:none;stroke:#000;stroke-width:2px;"/><path d="M13,12C14.656,12 16,10.656 16,9C16,7.344 14.656,6 13,6L5,6C3.344,6 2,7.344 2,9C2,10.656 3.344,12 5,12L13,12Z" style="fill:none;stroke:#000;stroke-width:2px;"/><rect x="7" y="1" width="4" height="5"/><rect x="7" y="12" width="4" height="3"/></svg>