<?xml version="1.0" encoding="UTF-8" standalone="no"?><!DOCTYPE svg PUBLIC "-//W3C//DTD SVG 1.1//EN" "http://www.w3.org/Graphics/SVG/1.1/DTD/svg11.dtd"><svg width="18px" height="18px" version="1.1" xmlns="http://www.w3.org/2000/svg" xmlns:xlink="http://www.w3.org/1999/xlink" xml:space="preserve" xmlns:serif="http://www.serif.com/" style="fill-rule:evenodd;clip-rule:evenodd;stroke-linecap:square;stroke-miterlimit:2;"><path d="M14.348,10.297C14.193,11.044 13.503,12.964 11.302,14.004L10.418,13.01L9,14C7.281,13.977 5.596,13.659 4.575,12.276C4.733,12.326 4.897,12.357 5.062,12.368C5.306,12.373 6,12.41 6,12L6,7.828C6,7.82 6,7.835 6,7.828C6,7.461 5.366,7 5,7C4.943,7 5.056,6.985 5,7C4.309,7.159 3.491,9.042 3.491,9.042C3.475,7.433 3.783,6.052 5,5C5.792,4.315 7.149,3.711 8.184,3.553C7.43,3.983 7,4.412 7,5C7,5.946 7.831,6.139 8,6L8,11.423C8.029,11.492 7.955,11.556 8,11.615C8.153,11.827 8.255,11.951 8.516,11.949C9.086,11.949 10,11 10,11L10,7C10,6.55 9.487,5.886 9.148,5.7C9.148,5.7 9.776,5.588 10.261,5.96C10.352,5.848 10.449,5.742 10.551,5.641C11.682,4.531 12.748,4.215 13.635,4.057C14.523,3.898 12.022,5.298 12.022,7C12.022,8.265 12,11.378 12,11.378C12.599,11.956 13.543,11.121 14.348,10.297Z"/><circle cx="9" cy="9" r="8" style="fill:none;stroke:#000;stroke-width:2px;"/></svg>