<?xml version="1.0" encoding="UTF-8" standalone="no"?><!DOCTYPE svg PUBLIC "-//W3C//DTD SVG 1.1//EN" "http://www.w3.org/Graphics/SVG/1.1/DTD/svg11.dtd"><svg width="18px" height="18px" version="1.1" xmlns="http://www.w3.org/2000/svg" xmlns:xlink="http://www.w3.org/1999/xlink" xml:space="preserve" xmlns:serif="http://www.serif.com/" style="fill-rule:evenodd;clip-rule:evenodd;stroke-linejoin:round;stroke-miterlimit:2;"><path d="M3,1C3,1 0.033,3.81 -0,3.81C-0,5.162 0.648,6 2,6C3.352,6 4,4.98 4,4C4,4.997 4.476,6 5.473,6C6.47,6 7,4.98 7,4C7,4.98 8.02,6 9,6C9.98,6 11,4.98 11,4C11,4.996 11.491,6 12.488,6C13.484,6 14,4.996 14,4C14,4.996 15.004,6 16,6C17.227,6 18,5.227 18,4C18,3.975 15,1 15,1L3,1ZM7.48,6.411C7.343,6.278 6.917,6.276 6.779,6.41C6.389,6.792 5.865,7.006 5.319,7.006C4.75,7.006 4.231,6.778 3.855,6.409C3.719,6.276 3.294,6.276 3.158,6.41C2.767,6.792 2.241,7.006 1.695,7.006C1.626,7.006 1.058,7.02 1,7C1,8.303 1.002,9.705 1,10.042C1.015,11.794 1.055,16.036 2,17C3.308,17 13.535,16.991 16,17C16.945,16.036 16.985,11.793 17,10.042C16.999,9.705 17,8.247 17,7C16.942,7.02 16.379,7.008 16.31,7.008C15.764,7.008 15.238,6.794 14.847,6.412C14.711,6.278 14.285,6.278 14.148,6.411C13.772,6.779 13.254,7.007 12.685,7.007C12.117,7.007 11.601,6.779 11.225,6.411C11.087,6.278 10.663,6.278 10.527,6.411C10.136,6.794 9.61,7.008 9.063,7.007C9.043,7.007 9.023,7.006 9.003,7.006L9.003,7.006C8.983,7.006 8.963,7.007 8.943,7.007C8.375,7.007 7.856,6.779 7.48,6.411ZM6,8C6.595,8.001 7,8.179 7,9C7.516,8.946 8.461,8.536 9.001,8.537L9.002,8.537C9.542,8.536 10.462,8.946 10.978,9C10.978,8.23 11.405,8.002 12,8C12,8 13.216,7.799 14,10L15,13C15.624,15.247 15.209,15.426 14.182,15.428C12.658,15.371 12,14.106 12,13L6,13C6,14.106 5.348,15.371 3.824,15.428C2.797,15.426 2.376,15.246 3,13L4,10.042C4.784,7.841 5.719,8 6,8ZM9.002,8.537C9.001,8.539 6.66,10.738 6.372,11.262L8,11L8,12L10,12L10,11L11.795,11.408C11.507,10.884 9.002,8.537 9.002,8.537Z" style="fill-rule:nonzero;"/></svg>