<?xml version="1.0" encoding="UTF-8" standalone="no"?><!DOCTYPE svg PUBLIC "-//W3C//DTD SVG 1.1//EN" "http://www.w3.org/Graphics/SVG/1.1/DTD/svg11.dtd"><svg width="18px" height="18px" version="1.1" xmlns="http://www.w3.org/2000/svg" xmlns:xlink="http://www.w3.org/1999/xlink" xml:space="preserve" xmlns:serif="http://www.serif.com/" style="fill-rule:evenodd;clip-rule:evenodd;stroke-linejoin:round;stroke-miterlimit:2;"><path d="M3,4L4,4C4.567,4 5,3.567 5,3C5,2.433 4.567,2 4,2L3,2L3,4ZM2.998,6L2.998,9L-0,9L-0,0C-0,0 3.627,0.001 5,0.001C6.567,0.001 7.513,1.433 7.513,3C7.513,5.003 5.895,6 5,6L2.998,6" style="fill-rule:nonzero;"/><path d="M17,1C16.473,1.543 15.606,2.405 15,3C14.255,2.386 13.111,2.5 12.414,3.216C11.725,3.925 11.769,5.232 12.468,5.92C13.128,6.57 14.231,6.634 15,6C15.55,6.569 16.411,7.407 17,8C16.563,8.414 15.809,8.853 15,9C13.843,9.21 12.507,9.103 11.443,8.578C10.023,7.877 9,6.411 9,4.536C9,2.974 9.797,1.616 11.096,0.749C11.936,0.188 12.886,0.016 13.892,0.003C15.075,-0.013 16.163,0.163 17,1Z" style="fill-rule:nonzero;"/><path d="M10.579,15L10.578,17L9.307,17L9.307,13C9.343,12.998 10.687,13 10.687,13L11.6,14.834L12.529,12.977L13.857,12.978L13.857,17L12.555,17L12.555,15L11.92,16.448L11.236,16.448L10.579,15Z" style="fill-rule:nonzero;"/><path d="M3.896,13.577C3.578,13.885 3.272,14.181 2.963,14.48C2.499,14.128 2.063,14.068 1.708,14.318C1.391,14.542 1.256,14.991 1.385,15.398C1.503,15.772 1.813,16 2.206,16.002C2.542,16.004 2.817,15.841 2.9,15.581L2,15.581L2,14.72L4.194,14.718C4.194,14.718 4.217,14.744 4.231,14.854C4.339,15.724 3.912,16.927 2.601,17.152C1.369,17.363 0.275,16.65 0.043,15.488C-0.208,14.237 0.67,13.053 1.943,12.928C2.558,12.868 3.138,12.965 3.645,13.347C3.734,13.414 3.81,13.497 3.896,13.577" style="fill-rule:nonzero;"/><rect x="-0.016" y="11" width="18.016" height="1"/><path d="M15,17L15,12.985L18,12.985L18,14L16,14L16,14.584L17.634,14.584L17.634,15.505L16,15.505L16,15.965L17.996,15.965L17.996,17L15,17Z" style="fill-rule:nonzero;"/><path d="M6.873,15.469C6.77,15.141 6.565,14.468 6.556,14.468C6.449,14.787 6.33,15.142 6.22,15.469L6.873,15.469ZM5.925,13L7.25,13L8.862,17L7.391,17L7.189,16.446L5.946,16.444L5.759,16.99L4.366,16.99L5.925,13Z" style="fill-rule:nonzero;"/></svg>