<?xml version="1.0" encoding="UTF-8" standalone="no"?><!DOCTYPE svg PUBLIC "-//W3C//DTD SVG 1.1//EN" "http://www.w3.org/Graphics/SVG/1.1/DTD/svg11.dtd"><svg width="18px" height="18px" version="1.1" xmlns="http://www.w3.org/2000/svg" xmlns:xlink="http://www.w3.org/1999/xlink" xml:space="preserve" xmlns:serif="http://www.serif.com/" style="fill-rule:evenodd;clip-rule:evenodd;stroke-linejoin:round;stroke-miterlimit:2;"><path d="M15.591,0L3.409,0C2.38,0 2,0.38 2,1.409L2,14C2,14.858 2.215,15.23 3,15.576C3.701,15.884 8.303,17.798 8.303,17.798C8.628,17.946 8.763,18.004 8.999,18L9.001,18C9.237,18.004 9.372,17.946 9.697,17.798L16,15.576C16.678,15.303 17,14.731 17,14L17,1.409C17,0.38 16.62,0 15.591,0ZM4,13.017L15.043,13L9,15.417L4,13.017ZM14,7L14,8.741C14,9.021 13.936,9.104 13.668,9.104L13.47,9.104C13.192,9.104 13,8.975 13,8.695L13,4.285C13,4.005 13.192,3.876 13.47,3.876L13.648,3.876C13.917,3.876 14,4.051 14,4.331L14,5L15.043,5L15.043,4.271C15.043,3.403 14.671,2.938 13.807,2.938L13.291,2.938C12.427,2.938 12,3.367 12,4.235L12,8.745C12,9.613 12.427,10.042 13.291,10.042L13.817,10.042C14.681,10.042 15,9.659 15,8.791L15,7L14,7ZM10,10L11,10L11,3L10,3L10,10ZM8.189,3L7,3L7,9.985L8,9.985L8,7.45L8.189,7.45C9.053,7.45 9,7.021 9,6.153L9,4.297C9,3.429 9.053,3 8.189,3ZM5,7L6,7L6,6L5,6L5,4L6,4L6,3L4,2.998L4,9.983L6,9.983L6,9.015L5,9L5,7Z"/></svg>