<?xml version="1.0" encoding="UTF-8" standalone="no"?><!DOCTYPE svg PUBLIC "-//W3C//DTD SVG 1.1//EN" "http://www.w3.org/Graphics/SVG/1.1/DTD/svg11.dtd"><svg width="18px" height="18px" version="1.1" xmlns="http://www.w3.org/2000/svg" xmlns:xlink="http://www.w3.org/1999/xlink" xml:space="preserve" xmlns:serif="http://www.serif.com/" style="fill-rule:evenodd;clip-rule:evenodd;stroke-linecap:square;stroke-miterlimit:5;"><path d="M9,1C4.585,1 1,4 1,9C1,14 4.585,17 9,17C13.415,17 17,14 17,9C17,4 13.415,1 9,1Z" style="fill:none;stroke:#000;stroke-width:2px;"/><path d="M12,9C12,4.585 10.656,1 9,1C7.344,1 6,4.585 6,9C6,13.415 7.344,17 9,17C10.656,17 12,13.415 12,9Z" style="fill:none;stroke:#000;stroke-width:2px;"/><path d="M2,7L16,7" style="fill:none;stroke:#000;stroke-width:2px;"/><path d="M2,11L16,11" style="fill:none;stroke:#000;stroke-width:2px;"/></svg>