<?xml version="1.0" encoding="UTF-8" standalone="no"?><!DOCTYPE svg PUBLIC "-//W3C//DTD SVG 1.1//EN" "http://www.w3.org/Graphics/SVG/1.1/DTD/svg11.dtd"><svg width="18px" height="18px" version="1.1" xmlns="http://www.w3.org/2000/svg" xmlns:xlink="http://www.w3.org/1999/xlink" xml:space="preserve" xmlns:serif="http://www.serif.com/" style="fill-rule:evenodd;clip-rule:evenodd;stroke-linecap:square;stroke-miterlimit:5;"><path d="M6,15C7.987,13.934 8.019,13.394 7,13C5.993,12.61 5.192,10.765 5.017,9C4.843,7.234 5,6 4,5L9,5" style="fill:none;stroke:#000;stroke-width:2px;"/><path d="M12,15C10.013,13.934 9.981,13.394 11,13C12.007,12.61 12.808,10.765 12.983,9C13.157,7.234 13,6 14,5L9,5" style="fill:none;stroke:#000;stroke-width:2px;"/><path d="M13.06,8C14,6 15.257,6 16,6C16.992,6 17.182,6.503 16.826,8C16.457,9.556 15,10 14,10C12,10 11.731,13.865 14.731,12.865" style="fill:none;stroke:#000;stroke-width:2px;stroke-linecap:butt;"/><path d="M1.463,14.263C2.2,15 3,15.413 4,15.706C5,16 7,15.992 8.999,15.996C11,16 13.186,16 14,15.711C15,15.355 15.86,15.14 16.611,14.389" style="fill:none;stroke:#000;stroke-width:2px;stroke-linejoin:round;stroke-miterlimit:3;"/><path d="M13.741,2.389L12.35,4.474" style="fill:none;stroke:#000;stroke-width:2px;stroke-linejoin:round;stroke-miterlimit:3;"/></svg>