<?xml version="1.0" encoding="UTF-8" standalone="no"?><!DOCTYPE svg PUBLIC "-//W3C//DTD SVG 1.1//EN" "http://www.w3.org/Graphics/SVG/1.1/DTD/svg11.dtd"><svg width="18px" height="18px" version="1.1" xmlns="http://www.w3.org/2000/svg" xmlns:xlink="http://www.w3.org/1999/xlink" xml:space="preserve" xmlns:serif="http://www.serif.com/" style="fill-rule:evenodd;clip-rule:evenodd;stroke-linecap:square;stroke-miterlimit:5;"><path d="M9,15C6,15 5,12.869 5,10.869C5,9.396 6.132,9 6.132,7C6.132,6 5.639,5.082 5,4L9,4" style="fill:none;stroke:#000;stroke-width:2px;"/><path d="M9,15C12,15 13,12.869 13,10.869C13,9.396 11.868,9 11.868,7C11.868,6 12.361,5.082 13,4L9,4" style="fill:none;stroke:#000;stroke-width:2px;"/><path d="M2,13C4,16 5,16 7,16L11,16C13,16 14,16 16,13" style="fill:none;stroke:#000;stroke-width:2px;stroke-linejoin:round;stroke-miterlimit:3;"/><path d="M12.39,1.389L11,3.474" style="fill:none;stroke:#000;stroke-width:2px;stroke-linejoin:round;stroke-miterlimit:3;"/><path d="M7,11C7.432,11.33 8.243,11.831 9,12" style="fill:none;stroke:#000;stroke-width:2px;stroke-linecap:butt;stroke-linejoin:round;stroke-miterlimit:3;"/></svg>