<?xml version="1.0" encoding="UTF-8" standalone="no"?><!DOCTYPE svg PUBLIC "-//W3C//DTD SVG 1.1//EN" "http://www.w3.org/Graphics/SVG/1.1/DTD/svg11.dtd"><svg width="18px" height="18px" version="1.1" xmlns="http://www.w3.org/2000/svg" xmlns:xlink="http://www.w3.org/1999/xlink" xml:space="preserve" xmlns:serif="http://www.serif.com/" style="fill-rule:evenodd;clip-rule:evenodd;stroke-linejoin:round;stroke-miterlimit:2;"><path d="M9.339,0.017C11.008,0.183 12,0.292 12,4.003C12,6.604 14.417,6.449 15,10.003C15.4,12.444 15.039,11.907 15.24,12.003C16.3,12.509 14.935,13.232 15.221,13.411C15.63,13.667 16.552,13.201 17.218,13.557C17.778,13.856 16.954,15.331 16,15.778C14.036,16.697 14.557,18.003 12.205,18.003C10.21,18.003 10.206,17.003 9,17.003C7.522,17.003 7.957,17.998 6.072,17.998C4.467,17.998 3.758,17.353 3,17.201C1.668,16.934 0,16.846 0,15.487C0,15.152 1.191,14.868 1.282,14.67C1.425,14.358 0.457,13.678 0.679,13.003C0.884,12.379 2.052,13.001 2.195,12.851C2.426,12.61 1.641,12.002 2,11.557C2.178,11.337 2.689,10.96 3,11.003C2.922,9.674 3.721,9.37 4.565,8.348C5.582,7.116 6.131,6.57 6,5.074C5.896,3.891 5.913,2.831 6,2.003C6.119,0.874 7.686,-0.146 9.339,0.017ZM7.148,17.005C7.467,16.574 7.033,16.19 6.479,15.492C6.075,14.983 5.568,14.136 5.047,13.451C4.353,12.54 3.45,11.771 2.754,12.123C2.185,12.41 2.912,12.912 2.662,13.239C2.397,13.584 1.675,13.007 1.376,13.559C1.076,14.115 1.865,14.481 1.772,14.754C1.67,15.051 0.991,15.046 1.06,15.714C1.109,16.2 1.964,16.352 3.083,16.457C4.203,16.562 4.819,16.973 5.378,17.244C5.936,17.516 6.723,17.58 7.148,17.005ZM11.791,12.017C11.748,12.021 11.6,12.047 11.466,12.212C11.305,12.41 11.3,12.608 11.296,13.195C11.289,14.209 11.162,14.813 11,15.003C10.496,15.592 10.301,15.997 9,16.003C7.467,16.009 6.325,14.907 5.724,13.65C6.204,13.208 6.202,12.414 5.707,11.428C5.653,11.321 5.25,11.178 5.246,10.909C5.221,8.836 6.24,8.098 6.682,7.255C7.041,6.57 7.024,6.336 7,6.003C7.117,6.134 7.572,7.15 8,7.15C8.724,7.15 9.533,6.656 9.743,6.536C9.953,6.416 10.283,6.274 10.522,6.201C10.852,6.099 10.93,5.965 11,6.003C11.063,6.036 11.06,6.22 11.076,6.431C11.121,6.994 10.819,7.074 11.174,7.621C11.688,8.415 12.066,8.734 12.234,9.878C12.296,10.297 12.553,10.211 13.372,10.59C13.733,10.757 14.162,11.094 14.271,11.522C14.344,11.805 14.183,12.17 14.046,12.342C13.947,12.467 14.466,12.198 14.727,12.351C15.595,12.859 14.3,13.489 14.785,13.774C15.24,14.041 15.624,13.622 16.17,13.899C16.651,14.143 16.704,14.709 16,15.003C13.742,15.944 12.896,17.003 12.317,17.003C11.738,17.003 11.101,17.093 11.025,16.7C10.919,16.151 12,15.251 12,14.642C12,13.462 11.581,12.497 11.792,12.026C11.825,12.633 12.083,12.975 12.427,13.05C12.97,13.17 13.45,12.915 13.941,12.421C14.484,11.874 14.46,11.076 13.583,10.703C12.604,10.287 11.835,10.6 11.782,11.477C11.77,11.672 11.783,11.858 11.791,12.017ZM6.936,5.133C6.994,5.142 7.169,5.317 7.328,5.501C7.559,5.77 7.699,6.567 8,6.585C8.328,6.605 9.245,6.2 9.64,6.003C10.051,5.797 11.001,5.592 11,5.074C10.999,4.502 10.086,4.987 9.719,4.743C9.375,4.513 9.312,3.822 8.689,3.821C8.084,3.82 8.162,4.367 7.859,4.637C7.587,4.879 6.791,4.475 6.756,4.967C6.748,5.086 6.834,5.067 6.942,5.132L6.936,5.133ZM10.479,2.724C10.847,2.742 11.017,3.203 11,3.53C10.978,3.946 10.724,4.147 10.505,4.147C10.286,4.147 9.863,3.892 9.863,3.444C9.863,2.866 10.133,2.708 10.479,2.724ZM7.452,2.677C7.843,2.677 8.031,2.91 8.031,3.392C8.031,3.875 7.741,4.161 7.399,4.185C7.058,4.209 6.878,3.871 6.878,3.49C6.878,2.974 7.061,2.677 7.452,2.677Z"/></svg>