<?xml version="1.0" encoding="UTF-8" standalone="no"?><!DOCTYPE svg PUBLIC "-//W3C//DTD SVG 1.1//EN" "http://www.w3.org/Graphics/SVG/1.1/DTD/svg11.dtd"><svg width="18px" height="18px" version="1.1" xmlns="http://www.w3.org/2000/svg" xmlns:xlink="http://www.w3.org/1999/xlink" xml:space="preserve" xmlns:serif="http://www.serif.com/" style="fill-rule:evenodd;clip-rule:evenodd;stroke-linecap:square;stroke-miterlimit:5;"><path d="M13,16.003L14.5,16.003C15.88,16.003 17,14.882 17,13.503L17,11.003C17,9.623 16.38,9.003 15,9.003L14,9.003C13.735,9.003 13.48,8.897 13.293,8.71C13.105,8.522 13,8.268 13,8.002C13,7.319 13,6.381 13,5.503C13,4.122 14.119,3.003 15.5,3.003C16.308,3.003 17,3.003 17,3.003" style="fill:none;stroke:#000;stroke-width:2px;"/><path d="M1,9.003L1,16.003" style="fill:none;stroke:#000;stroke-width:2px;"/><path d="M1,6.003L1,5.003" style="fill:none;stroke:#000;stroke-width:2px;"/><path d="M10,5.503C10,4.123 8.88,3.003 7.5,3.003C6.12,3.003 5,4.123 5,5.503L5,13.503C5,14.882 6.12,16.003 7.5,16.003C8.88,16.003 10,14.882 10,13.503L10,5.503Z" style="fill:none;stroke:#000;stroke-width:2px;"/><path d="M1,9.003L1,16.003" style="fill:none;stroke:#000;stroke-width:2px;"/><path d="M1,9.003L1,16.003" style="fill:none;stroke:#000;stroke-width:2px;"/></svg>