<?xml version="1.0" encoding="UTF-8" standalone="no"?><!DOCTYPE svg PUBLIC "-//W3C//DTD SVG 1.1//EN" "http://www.w3.org/Graphics/SVG/1.1/DTD/svg11.dtd"><svg width="18px" height="18px" version="1.1" xmlns="http://www.w3.org/2000/svg" xmlns:xlink="http://www.w3.org/1999/xlink" xml:space="preserve" xmlns:serif="http://www.serif.com/" style="fill-rule:evenodd;clip-rule:evenodd;stroke-linecap:square;stroke-miterlimit:5;"><path d="M17,3.386C17,2.622 16.38,2.003 15.617,2.003L2.383,2.003C1.62,2.003 1,2.622 1,3.386L1,14.619C1,15.383 1.62,16.003 2.383,16.003L15.617,16.003C16.38,16.003 17,15.383 17,14.619L17,3.386Z" style="fill:none;stroke:#000;stroke-width:2px;"/><path d="M10.522,15.003C10.341,14.521 10.164,13.893 10.111,13.184C9.99,11.563 10,10.003 10,10.003L8,10.003C8,10.003 7.701,6.643 8.951,3.003" style="fill:none;stroke:#000;stroke-width:2px;"/><path d="M14,6.003L14,7.003" style="fill:none;stroke:#000;stroke-width:2px;"/><path d="M4,6.003L4,7.003" style="fill:none;stroke:#000;stroke-width:2px;"/><path d="M12.667,12.003C11.711,12.584 10.432,12.996 9,13.003C7.568,13.009 6.083,12.626 5,12.003" style="fill:none;stroke:#000;stroke-width:2px;"/></svg>