<?xml version="1.0" encoding="UTF-8" standalone="no"?><!DOCTYPE svg PUBLIC "-//W3C//DTD SVG 1.1//EN" "http://www.w3.org/Graphics/SVG/1.1/DTD/svg11.dtd"><svg width="18px" height="18px" version="1.1" xmlns="http://www.w3.org/2000/svg" xmlns:xlink="http://www.w3.org/1999/xlink" xml:space="preserve" xmlns:serif="http://www.serif.com/" style="fill-rule:evenodd;clip-rule:evenodd;stroke-linecap:square;stroke-miterlimit:2;"><path d="M9.961,1C13.11,1 15.344,2.376 16.27,4.004C18.13,7.271 16.607,10.365 13.078,10.958C11.583,11.209 11.454,12.391 11.902,12.925C12.713,13.893 13.47,14.855 12.961,16C12.444,17.161 10.961,17 9.961,17C9.421,17 8.349,16.837 8.349,16.837C2.844,15.71 0.219,9.138 3.328,4.528C4.735,2.442 7.373,1 9.961,1Z" style="fill:none;stroke:#000;stroke-width:2px;"/><circle cx="12.961" cy="6" r="2"/><circle cx="7.961" cy="6" r="2"/><circle cx="5.961" cy="10" r="2"/></svg>