<?xml version="1.0" encoding="UTF-8" standalone="no"?><!DOCTYPE svg PUBLIC "-//W3C//DTD SVG 1.1//EN" "http://www.w3.org/Graphics/SVG/1.1/DTD/svg11.dtd"><svg width="18px" height="18px" version="1.1" xmlns="http://www.w3.org/2000/svg" xmlns:xlink="http://www.w3.org/1999/xlink" xml:space="preserve" xmlns:serif="http://www.serif.com/" style="fill-rule:evenodd;clip-rule:evenodd;stroke-linecap:square;stroke-miterlimit:2;"><circle cx="9.011" cy="9" r="3.989" style="fill:none;stroke:#000;stroke-width:2px;"/><path d="M14.769,4.481C14.769,5.172 14.209,5.731 13.519,5.731C12.828,5.731 12.269,5.172 12.269,4.481C12.269,3.791 12.828,3.231 13.519,3.231C14.209,3.231 14.769,3.791 14.769,4.481Z"/><path d="M9.003,1C6.83,1 6.557,1.009 5.704,1.048C4.853,1.087 4.271,1.222 3.762,1.42C3.236,1.624 2.79,1.898 2.345,2.343C1.9,2.787 1.627,3.234 1.422,3.76C1.225,4.269 1.089,4.85 1.051,5.702C1.012,6.555 1.003,6.827 1.003,9C1.003,11.173 1.012,11.445 1.051,12.298C1.089,13.15 1.225,13.731 1.422,14.24C1.627,14.766 1.9,15.213 2.345,15.657C2.79,16.102 3.236,16.376 3.762,16.58C4.271,16.778 4.853,16.913 5.704,16.952C6.557,16.991 6.83,17 9.003,17C11.175,17 11.448,16.991 12.301,16.952C13.152,16.913 13.734,16.778 14.243,16.58C14.769,16.376 15.215,16.102 15.66,15.657C16.105,15.213 16.378,14.766 16.583,14.24C16.78,13.731 16.916,13.15 16.954,12.298C16.993,11.445 17.003,11.173 17.003,9C17.003,6.827 16.993,6.555 16.954,5.702C16.916,4.85 16.78,4.269 16.583,3.76C16.378,3.234 16.105,2.787 15.66,2.343C15.215,1.898 14.769,1.624 14.243,1.42C13.734,1.222 13.152,1.087 12.301,1.048C11.448,1.009 11.175,1 9.003,1Z" style="fill:none;stroke:#000;stroke-width:2px;stroke-linecap:butt;stroke-linejoin:round;"/></svg>