<?xml version="1.0" encoding="UTF-8" standalone="no"?><!DOCTYPE svg PUBLIC "-//W3C//DTD SVG 1.1//EN" "http://www.w3.org/Graphics/SVG/1.1/DTD/svg11.dtd"><svg width="18px" height="18px" version="1.1" xmlns="http://www.w3.org/2000/svg" xmlns:xlink="http://www.w3.org/1999/xlink" xml:space="preserve" xmlns:serif="http://www.serif.com/" style="fill-rule:evenodd;clip-rule:evenodd;stroke-linejoin:round;stroke-miterlimit:2;"><path d="M0.993,7L0.993,0.001L5,0L5,1L2,1L2,3L4.978,3L4.978,4L2,4L2,6L5,6L5,7L0.993,7Z" style="fill-rule:nonzero;"/><path d="M0.993,17L0.993,10.001L5,10L5,11L2,11L2,13L4.978,13L4.978,14L2,14L2,16L5,16L5,17L0.993,17Z" style="fill-rule:nonzero;"/><path d="M7,9L7,8C7.438,8.008 7.877,8.016 8.315,8C8.715,7.985 9,7.816 9,7.386L9,5.921C8.724,6.886 7.471,7.369 6.651,6.725C6.118,6.306 5.971,5.551 5.971,4.917L5.971,3.853C5.971,3.494 6.019,3.114 6.19,2.79C6.892,1.458 8.929,1.69 10,2.352L10,7.577C10,8.652 9.328,9 8.347,9L7,9ZM9,4.774L9,3C8.34,2.77 7.366,2.541 7.066,3.422C7.02,3.56 7,3.708 7,3.853L7,4.917C7,5.099 7.032,5.361 7.129,5.523C7.381,5.945 7.955,6.114 8.405,5.919C8.832,5.734 9,5.201 9,4.774Z" style="fill-rule:nonzero;"/><path d="M6.017,15.452L7,15.452C7.039,16.106 8.153,16.186 8.578,15.965C8.751,15.874 8.907,15.721 8.909,15.508C8.913,14.983 8.125,15 7.785,14.929C6.845,14.733 5.792,14.105 6.176,12.966C6.72,11.351 10,11.573 10,13.427L9,13.428C8.998,13.198 8.786,13.042 8.603,12.952C8.211,12.761 7.181,12.744 7.192,13.399C7.202,13.922 7.958,13.905 8.307,13.978C9.249,14.173 10.327,14.8 9.921,15.951C9.345,17.583 6.017,17.338 6.017,15.452Z" style="fill-rule:nonzero;"/><path d="M11.489,11.181C11.31,11.181 11.115,11.132 10.985,11.002C10.739,10.756 10.739,10.24 10.985,9.994C11.115,9.864 11.31,9.815 11.489,9.815C11.668,9.815 11.862,9.864 11.992,9.994C12.238,10.24 12.238,10.756 11.992,11.002C11.862,11.132 11.668,11.181 11.489,11.181Z" style="fill-rule:nonzero;"/><path d="M13,17L13,12.487C14.187,11.917 16.007,11.527 16.754,12.966C16.834,13.12 16.894,13.285 16.935,13.454C16.977,13.631 17,13.814 17,13.996L17,17L16,17L16,13.996C16,13.862 15.993,13.725 15.958,13.595C15.72,12.698 14.649,12.839 14,13.171L14,17L13,17Z" style="fill-rule:nonzero;"/><path d="M14.959,5.748C14.69,6.995 12.969,7.281 11.976,6.79C11.269,6.44 10.993,5.736 10.993,4.985L10.993,3.922C10.993,3.371 11.118,2.824 11.525,2.425C12.396,1.571 14.213,1.744 14.786,2.858C14.953,3.183 15,3.564 15,3.922L15,5L12,5L12,5.065C12,5.718 12.347,6.11 13,6.147C13.311,6.165 13.863,6.104 14,5.748L14.959,5.748ZM14,4L14,3.935C14,3.674 13.949,3.348 13.772,3.137C13.425,2.722 12.575,2.745 12.231,3.15C12.051,3.361 12,3.668 12,3.935L12,4L14,4Z" style="fill-rule:nonzero;"/><rect x="11" y="12" width="1" height="5"/></svg>