<?xml version="1.0" encoding="UTF-8" standalone="no"?><!DOCTYPE svg PUBLIC "-//W3C//DTD SVG 1.1//EN" "http://www.w3.org/Graphics/SVG/1.1/DTD/svg11.dtd"><svg width="18px" height="18px" version="1.1" xmlns="http://www.w3.org/2000/svg" xmlns:xlink="http://www.w3.org/1999/xlink" xml:space="preserve" xmlns:serif="http://www.serif.com/" style="fill-rule:evenodd;clip-rule:evenodd;stroke-linecap:square;stroke-linejoin:round;stroke-miterlimit:10;"><path d="M17,3C16.145,3.832 15.976,3.993 15.338,4.338C14.928,2.114 12.607,1.436 11,2C9.32,2.589 8.647,4.285 9,6.693L9,7C6.273,6.641 4.459,4.459 3,2.358C3,2.358 -0.664,8.957 7,11.693C6.064,12.711 4.917,13.676 1.747,13.484C7.947,16.929 15.617,13.545 15.617,5.622C15.617,5.429 15.595,5.237 15.561,5.044C16.263,4.353 16.762,3.952 17,3Z" style="fill:none;stroke:#000;stroke-width:2px;"/></svg>