<?xml version="1.0" encoding="UTF-8" standalone="no"?><!DOCTYPE svg PUBLIC "-//W3C//DTD SVG 1.1//EN" "http://www.w3.org/Graphics/SVG/1.1/DTD/svg11.dtd"><svg width="18px" height="18px" version="1.1" xmlns="http://www.w3.org/2000/svg" xmlns:xlink="http://www.w3.org/1999/xlink" xml:space="preserve" xmlns:serif="http://www.serif.com/" style="fill-rule:evenodd;clip-rule:evenodd;stroke-linejoin:round;stroke-miterlimit:2;"><path d="M4.468,2.818C5.303,3.446 6.166,4.369 6.927,5.329C7.839,6.479 8.605,7.685 9,8.504L9,12C9,12 8.87,12.486 8.8,12.691C8.421,13.805 7,18 4,15C2.932,13.932 0.111,10 5.52,10C3.572,10 1.835,9.908 1.445,8C1.322,7.401 1,3.994 1,3.504C1,1.05 3.145,1.821 4.468,2.818Z" style="fill:none;fill-rule:nonzero;stroke:#000;stroke-width:2px;"/><path d="M13.532,2.818C12.697,3.446 11.834,4.369 11.073,5.329C10.161,6.479 9.395,7.685 9,8.504L9,12C9,12 9.13,12.486 9.2,12.691C9.579,13.805 11,18 14,15C15.068,13.932 17.889,10 12.48,10C14.428,10 16.165,9.908 16.556,8C16.678,7.401 17,3.994 17,3.504C17,1.05 14.855,1.821 13.532,2.818Z" style="fill:none;fill-rule:nonzero;stroke:#000;stroke-width:2px;"/></svg>