<?xml version="1.0" encoding="UTF-8" standalone="no"?><!DOCTYPE svg PUBLIC "-//W3C//DTD SVG 1.1//EN" "http://www.w3.org/Graphics/SVG/1.1/DTD/svg11.dtd"><svg width="18px" height="18px" version="1.1" xmlns="http://www.w3.org/2000/svg" xmlns:xlink="http://www.w3.org/1999/xlink" xml:space="preserve" xmlns:serif="http://www.serif.com/" style="fill-rule:evenodd;clip-rule:evenodd;stroke-linejoin:round;stroke-miterlimit:2;"><path d="M4.811,7.244C5.957,6.557 7.415,6 9.004,6C9.761,6 10.497,6.133 11.168,6.329C11.856,6.53 12.6,6.884 13.2,7.244C13.594,6.941 14.131,6.665 14.666,6.665C15.954,6.665 17,7.71 17,8.999C17,9.928 16.598,10.784 15.668,10.784C15.644,13.488 12.668,16 9.005,16C5.346,16 2.372,13.491 2.343,10.789C1.409,10.789 1,9.932 1,8.999C1,7.71 2.046,6.665 3.334,6.665C3.871,6.665 4.416,6.939 4.811,7.244Z" style="fill:none;stroke:#000;stroke-width:2px;"/><circle cx="12.5" cy="3.644" r="1.75" style="fill:none;stroke:#000;stroke-width:2px;"/><path d="M9,6C9,5.035 9.493,4.273 10.5,3.842" style="fill:none;stroke:#000;stroke-width:2px;stroke-miterlimit:3;"/><path d="M4.815,10.118C4.854,9.272 5.416,8.622 6.07,8.622C6.724,8.622 7.223,9.308 7.184,10.155C7.145,11.001 6.657,11.309 6.003,11.309C5.348,11.309 4.776,10.964 4.815,10.118Z" style="fill-rule:nonzero;"/><path d="M11.921,8.622C12.575,8.622 13.137,9.272 13.175,10.118C13.214,10.964 12.641,11.309 11.988,11.309C11.334,11.309 10.845,11.002 10.806,10.155C10.767,9.308 11.266,8.622 11.921,8.622Z" style="fill-rule:nonzero;"/><path d="M11.312,12.114C11.435,12.126 11.513,12.253 11.465,12.367C11.063,13.329 10.114,14.004 9.005,14.004C7.897,14.004 6.949,13.329 6.546,12.367C6.498,12.253 6.576,12.126 6.699,12.114C7.417,12.041 8.194,12.001 9.005,12.001C9.817,12.001 10.593,12.041 11.312,12.114Z" style="fill-rule:nonzero;"/></svg>