<?xml version="1.0" encoding="UTF-8" standalone="no"?><!DOCTYPE svg PUBLIC "-//W3C//DTD SVG 1.1//EN" "http://www.w3.org/Graphics/SVG/1.1/DTD/svg11.dtd"><svg width="18px" height="18px" version="1.1" xmlns="http://www.w3.org/2000/svg" xmlns:xlink="http://www.w3.org/1999/xlink" xml:space="preserve" xmlns:serif="http://www.serif.com/" style="fill-rule:evenodd;clip-rule:evenodd;stroke-linecap:square;stroke-miterlimit:2;"><path d="M17,2C17,1.448 16.552,1 16,1L2,1C1.448,1 1,1.448 1,2L1,16C1,16.552 1.448,17 2,17L16,17C16.552,17 17,16.552 17,16L17,2Z" style="fill:none;stroke:#000;stroke-width:2px;"/><path d="M15,15L13,15L13,11C13,10.004 13.01,9 11.641,9C10.251,9 10,9.88 10,11L10,15L8,15L8,7L10,7L10,8.435C10.445,7.058 11.537,6.962 12.569,7C14.272,7 15,8.502 15,10L15,15ZM5.005,5.573L5.004,5.573C4.155,5.573 3.457,4.875 3.457,4.026C3.457,3.177 4.155,2.478 5.004,2.478C5.853,2.478 6.552,3.177 6.552,4.025L6.552,4.026C6.552,4.875 5.854,5.573 5.005,5.573M6,15L4,15L4,7L6,7L6,15Z" style="fill-rule:nonzero;"/></svg>