<?xml version="1.0" encoding="UTF-8" standalone="no"?><!DOCTYPE svg PUBLIC "-//W3C//DTD SVG 1.1//EN" "http://www.w3.org/Graphics/SVG/1.1/DTD/svg11.dtd"><svg width="18px" height="18px" version="1.1" xmlns="http://www.w3.org/2000/svg" xmlns:xlink="http://www.w3.org/1999/xlink" xml:space="preserve" xmlns:serif="http://www.serif.com/" style="fill-rule:evenodd;clip-rule:evenodd;stroke-linecap:square;stroke-miterlimit:2;"><path d="M17,10C17,12 17,13 10,13L6,13C7.339,14.31 12,13.442 12,13.442L12,16C12,16 11,17 8,17L6,17C4,17 1.096,15.342 1,11.394C0.971,10.222 1,7.924 1,7C1,2 4,1 9,1C14,1 17,2 17,7L17,10Z" style="fill:none;fill-rule:nonzero;stroke:#000;stroke-width:2px;"/><path d="M14,7L14,11L12,11L12,7.256C12,6.256 11.837,5.748 10.996,5.748C10.154,5.748 9.98,6.351 9.98,7.541L9.98,10L8,10L8,7.541C8,6.351 7.931,5.748 7,5.748C6.158,5.748 6,6.256 6,7.256L6,11L4,11L4,7C4,5 5,3.844 7,3.844C8,3.844 9,5 9,6C9,5 10,3.844 11,3.844C13,3.844 14,5 14,7Z" style="fill-rule:nonzero;"/></svg>