<?xml version="1.0" encoding="UTF-8" standalone="no"?><!DOCTYPE svg PUBLIC "-//W3C//DTD SVG 1.1//EN" "http://www.w3.org/Graphics/SVG/1.1/DTD/svg11.dtd"><svg width="18px" height="18px" version="1.1" xmlns="http://www.w3.org/2000/svg" xmlns:xlink="http://www.w3.org/1999/xlink" xml:space="preserve" xmlns:serif="http://www.serif.com/" style="fill-rule:evenodd;clip-rule:evenodd;stroke-linecap:square;stroke-linejoin:round;stroke-miterlimit:10;"><path d="M12,17L12,14.244C12,13.556 11.814,12.872 11.334,12.379C13.571,12.126 15.773,11.288 15.773,7.386C15.773,6.387 15.387,5.429 14.708,4.71C15.028,3.844 15.014,2.872 14.641,2.02C14.641,2.02 13.802,1.767 11.858,3.072C10.221,2.632 8.503,2.632 6.865,3.072C4.921,1.767 4.082,2.02 4.082,2.02C3.722,2.872 3.696,3.831 4.015,4.71C3.323,5.429 2.937,6.401 2.95,7.399C2.95,11.261 5.429,12.126 7.666,12.406C7.186,12.899 7,13.556 7,14.244L7,17M6,15.063C4.83,15.233 4.141,14.887 3.633,14.411C3.188,13.994 2.577,13.478 2,13.119" style="fill:none;stroke:#000;stroke-width:2px;"/></svg>