<?xml version="1.0" encoding="UTF-8" standalone="no"?><!DOCTYPE svg PUBLIC "-//W3C//DTD SVG 1.1//EN" "http://www.w3.org/Graphics/SVG/1.1/DTD/svg11.dtd"><svg width="18px" height="18px" version="1.1" xmlns="http://www.w3.org/2000/svg" xmlns:xlink="http://www.w3.org/1999/xlink" xml:space="preserve" xmlns:serif="http://www.serif.com/" style="fill-rule:evenodd;clip-rule:evenodd;stroke-linejoin:round;"><path id="ears" d="M12.66,5.397C12.934,5.015 13.292,4.662 13.67,4.444C14.861,3.756 16.119,3.85 16.709,4.845C17.301,5.84 16.977,6.944 15.858,7.701C15.287,8.045 14.733,8.254 14.121,8.336M5.34,5.397C5.066,5.015 4.708,4.662 4.33,4.444C3.139,3.756 1.881,3.85 1.291,4.845C0.699,5.84 1.023,6.944 2.142,7.701C2.713,8.045 3.267,8.254 3.879,8.336" style="fill:none;fill-rule:nonzero;stroke:#000;stroke-width:2px;"/><path id="head" d="M10.995,13.125C12.553,12.408 14.033,10.973 14.168,9.219C14.374,6.542 12.727,4.664 9,4.725C5.273,4.786 3.67,6.559 3.832,9.219C3.94,10.988 5.432,12.43 7,13.141" style="fill:none;fill-rule:nonzero;stroke:#000;stroke-width:2px;stroke-linecap:round;"/><path id="eyes" d="M10,10C10,10.552 10.448,11 11,11C11.552,11 12,10.552 12,10C12,9.448 11.552,9 11,9C10.448,9 10,9.448 10,10ZM6,10C6,10.552 6.448,11 7,11C7.552,11 8,10.552 8,10C8,9.448 7.552,9 7,9C6.448,9 6,9.448 6,10Z" style="fill-rule:nonzero;"/><path id="whiskers" d="M6,13L4.947,13.947M12,13L13.053,13.947M4,11L2,12M14,11L16,12" style="fill:none;fill-rule:nonzero;stroke:#000;stroke-width:2px;stroke-linecap:square;stroke-linejoin:miter;"/><path id="nose" d="M9,11.653C8.181,11.653 7.658,12.222 7.675,12.923C7.694,13.683 8.255,14.194 9,14.194C9.745,14.194 10.323,13.604 10.325,12.923C10.326,12.222 9.82,11.653 9,11.653Z" style="fill-rule:nonzero;"/></svg>