<?xml version="1.0" encoding="UTF-8" standalone="no"?><!DOCTYPE svg PUBLIC "-//W3C//DTD SVG 1.1//EN" "http://www.w3.org/Graphics/SVG/1.1/DTD/svg11.dtd"><svg width="18px" height="18px" version="1.1" xmlns="http://www.w3.org/2000/svg" xmlns:xlink="http://www.w3.org/1999/xlink" xml:space="preserve" xmlns:serif="http://www.serif.com/" style="fill-rule:evenodd;clip-rule:evenodd;stroke-linejoin:round;stroke-miterlimit:2;"><path id="Combined-Shape" d="M3.408,8.066C1.628,9.351 1.247,11.844 2.557,13.636L2.656,13.771C0.521,10.978 0.416,7.061 2.544,4.19L2.582,4.14C3.901,2.388 6.406,2.051 8.179,3.388C8.756,3.824 9.184,4.383 9.454,5" style="fill:none;stroke:#000;stroke-width:2px;"/><path id="Combined-Shape-Copy-6" d="M6.344,13.107C6.374,13.418 6.443,13.732 6.551,14.041C7.283,16.13 9.566,17.251 11.65,16.546L11.788,16.5C9.196,17.427 6.177,16.981 3.895,15.067C3.426,14.673 3.013,14.238 2.656,13.771L2.557,13.636C1.247,11.844 1.628,9.351 3.408,8.066C4.081,7.58 4.859,7.336 5.636,7.319C5.757,7.316 5.878,7.319 5.998,7.327" style="fill:none;stroke:#000;stroke-width:2px;"/><path id="Combined-Shape-Copy-5" d="M9.558,11C10.259,12.187 11.551,12.989 13.024,12.998C15.233,13.012 17.013,11.236 17,9.031L16.999,8.981C17.023,10.81 16.42,12.648 15.159,14.151C14.231,15.258 13.061,16.044 11.788,16.5L11.65,16.546C9.566,17.251 7.283,16.13 6.551,14.041C6.443,13.732 6.374,13.418 6.344,13.107" style="fill:none;stroke:#000;stroke-width:2px;"/><path id="Combined-Shape-Copy-4" d="M13.333,7.731C13.633,7.362 13.87,6.932 14.024,6.451C14.694,4.359 13.531,2.1 11.426,1.406L11.254,1.349C12.268,1.658 13.239,2.173 14.105,2.899C15.985,4.477 16.97,6.721 16.999,8.981L17,9.031C17.013,11.236 15.233,13.012 13.024,12.998C11.551,12.989 10.259,12.187 9.558,11" style="fill:none;stroke:#000;stroke-width:2px;"/><path id="path-8" d="M9.454,5C9.184,4.383 8.756,3.824 8.179,3.388C6.406,2.051 3.901,2.388 2.582,4.14L2.544,4.19C2.639,4.063 2.737,3.938 2.841,3.815C4.943,1.309 8.281,0.444 11.254,1.349L11.426,1.406C13.531,2.1 14.694,4.359 14.024,6.451C13.87,6.932 13.633,7.362 13.333,7.731" style="fill:none;stroke:#000;stroke-width:2px;"/><path id="path-17" d="M9,11L10.307,11C11.978,11 13.321,9.65 13.321,8C13.321,6.35 11.978,5 10.307,5L7.746,5C6.782,5 6,5.772 6,6.724L6,14L9,11Z" style="fill:none;fill-rule:nonzero;stroke:#000;stroke-width:2px;"/></svg>