<?xml version="1.0" encoding="UTF-8" standalone="no"?><!DOCTYPE svg PUBLIC "-//W3C//DTD SVG 1.1//EN" "http://www.w3.org/Graphics/SVG/1.1/DTD/svg11.dtd"><svg width="18px" height="18px" version="1.1" xmlns="http://www.w3.org/2000/svg" xmlns:xlink="http://www.w3.org/1999/xlink" xml:space="preserve" xmlns:serif="http://www.serif.com/" style="fill-rule:evenodd;clip-rule:evenodd;stroke-linecap:square;stroke-miterlimit:2;"><path d="M4.953,12.076C7.585,12.934 10.446,12.939 13.047,12.076" style="fill:none;fill-rule:nonzero;stroke:#000;stroke-width:2px;"/><path d="M11.755,13.531C11.822,13.665 12.76,14.671 13,15C14.321,14.589 16.084,14.208 17,13C17,9.525 16.354,6.421 15,4C13.964,3.515 12.616,3.201 11.458,3C11.316,3.257 11.115,3.725 11,4C9.769,3.815 8.208,3.815 7,4C6.885,3.725 6.663,3.257 6.52,3C5.361,3.201 4.036,3.514 3,4C1.638,6.411 1,9.949 1,13C1.908,14.129 3.68,14.589 5,15C5.239,14.671 6.177,13.661 6.244,13.527" style="fill:none;fill-rule:nonzero;stroke:#000;stroke-width:2px;"/><ellipse cx="6.5" cy="9" rx="1.432" ry="1.631"/><ellipse cx="11.5" cy="9" rx="1.432" ry="1.631"/></svg>