<?xml version="1.0" encoding="UTF-8" standalone="no"?><!DOCTYPE svg PUBLIC "-//W3C//DTD SVG 1.1//EN" "http://www.w3.org/Graphics/SVG/1.1/DTD/svg11.dtd"><svg width="18px" height="18px" version="1.1" xmlns="http://www.w3.org/2000/svg" xmlns:xlink="http://www.w3.org/1999/xlink" xml:space="preserve" xmlns:serif="http://www.serif.com/" style="fill-rule:evenodd;clip-rule:evenodd;stroke-linecap:square;stroke-miterlimit:2;"><circle cx="9" cy="9" r="8" style="fill:none;stroke:#000;stroke-width:2px;"/><path d="M3.513,8.894C4.81,8.118 7.689,6.853 8.664,6.448C11.448,5.29 12.722,5.017 13.099,5.01C13.181,5.009 13.367,5.029 13.487,5.127C13.588,5.209 13.616,5.32 13.63,5.398C13.643,5.476 13.66,5.654 13.646,5.793C13.559,6.715 13.546,7.771 13.281,9.37C13.09,10.521 12.712,12.271 12.511,13C12.107,14.464 11.904,14.582 10.6,13.79C9.698,13.242 8.491,12.39 7.712,11.722C7.306,11.374 7.517,11.128 8.216,10.404C8.364,10.25 10.998,7.917 11.101,7.726C11.291,7.375 11.059,7.295 11,7.242C10.941,7.19 10.731,7.271 10.669,7.285C10.58,7.305 9.265,8.157 6.534,10C5.761,10.522 5.416,10.55 4.426,10.194C3.943,10.02 3.478,9.874 3.18,9.692C2.746,9.428 2.748,9.251 3.513,8.894Z"/></svg>