<?xml version="1.0" encoding="UTF-8" standalone="no"?><!DOCTYPE svg PUBLIC "-//W3C//DTD SVG 1.1//EN" "http://www.w3.org/Graphics/SVG/1.1/DTD/svg11.dtd"><svg width="18px" height="18px" version="1.1" xmlns="http://www.w3.org/2000/svg" xmlns:xlink="http://www.w3.org/1999/xlink" xml:space="preserve" xmlns:serif="http://www.serif.com/" style="fill-rule:evenodd;clip-rule:evenodd;stroke-linejoin:round;stroke-miterlimit:1.5;"><path d="M15.654,5.984C15.272,4.55 14.466,3.197 13.251,2.321C10.86,0.599 7.126,0.528 4.736,2.301C2.079,4.273 1.723,7.995 2.155,11.025C2.409,12.806 3.204,14.603 4.675,15.709C6.661,17.202 9.63,17.406 11.895,16.481C14.096,15.582 15.791,13.358 14.609,10.995C13.699,9.176 11.976,8.576 10.072,8.485C9.464,8.456 8.285,8.543 7.744,8.753C6.171,9.364 5.875,11.422 7.196,12.456C8.57,13.53 10.615,13.006 11.449,11.554C12.776,9.245 12.251,5.071 9.016,5.017C8.688,5.012 8.357,5.063 8.041,5.151C7.348,5.342 6.79,5.827 6.387,6.403" style="fill:none;stroke:#000;stroke-width:2px;"/></svg>