<?xml version="1.0" encoding="UTF-8" standalone="no"?><!DOCTYPE svg PUBLIC "-//W3C//DTD SVG 1.1//EN" "http://www.w3.org/Graphics/SVG/1.1/DTD/svg11.dtd"><svg width="18px" height="18px" version="1.1" xmlns="http://www.w3.org/2000/svg" xmlns:xlink="http://www.w3.org/1999/xlink" xml:space="preserve" xmlns:serif="http://www.serif.com/" style="fill-rule:evenodd;clip-rule:evenodd;stroke-linecap:round;stroke-linejoin:round;stroke-miterlimit:14;"><path d="M6,6L6,12L13,9L6,6Z"/><path d="M16.624,4.996C16.417,4.222 15.807,3.612 15.033,3.405C13.629,3.029 9,3 9,3C9,3 4.371,3.029 2.967,3.405C2.193,3.612 1.583,4.222 1.376,4.996C1,6.4 1,9 1,9C1,9 1,11.658 1.376,13.061C1.583,13.836 2.193,14.446 2.967,14.653C4.371,15.029 9,15 9,15C9,15 13.629,15.029 15.033,14.653C15.807,14.446 16.417,13.836 16.624,13.061C17,11.658 17,9 17,9C17,9 17,6.4 16.624,4.996Z" style="fill:none;stroke:#000;stroke-width:2px;"/></svg>