<?xml version="1.0" encoding="UTF-8" standalone="no"?><!DOCTYPE svg PUBLIC "-//W3C//DTD SVG 1.1//EN" "http://www.w3.org/Graphics/SVG/1.1/DTD/svg11.dtd"><svg width="18px" height="18px" version="1.1" xmlns="http://www.w3.org/2000/svg" xmlns:xlink="http://www.w3.org/1999/xlink" xml:space="preserve" xmlns:serif="http://www.serif.com/" style="fill-rule:evenodd;clip-rule:evenodd;stroke-linejoin:round;stroke-miterlimit:2;"><path d="M14.564,14.703C14.79,14.516 14.901,14.129 14.871,13.794C14.852,13.585 14.769,13.12 14.699,12.842L12.476,5.354L14.391,5.354L15.644,10.861L16.63,5.352L18.085,5.352L16.455,13.836C16.336,14.493 16.203,14.996 16.06,15.345C15.955,15.602 15.746,15.845 15.441,16.011C15.122,16.185 14.506,16.163 14.506,16.163C14.043,16.163 13.579,15.937 13.403,15.69C13.278,15.514 13.213,15.305 13.213,15.305C13.213,15.305 13.421,13.995 13.427,14.006C13.771,14.59 14.399,14.84 14.564,14.703Z" style="fill-rule:nonzero;"/><path d="M10.972,14.001C10.742,14.001 10.545,13.985 10.376,13.953C10.207,13.922 10.032,13.85 9.849,13.738C9.666,13.627 9.516,13.474 9.398,13.28C9.28,13.085 9.185,12.813 9.111,12.464C9.038,12.116 9,11.702 9,11.221L9,6.334L8,6.334L8,5.355L9,5.355L9.174,1.334L11,1.334L11.002,5.355L12.414,5.355L12.414,6.334L11,6.334L11,10.766C11,11.097 11.021,11.374 11.064,11.594C11.107,11.814 11.169,11.976 11.252,12.078C11.334,12.18 11.417,12.25 11.5,12.283C11.583,12.318 11.685,12.334 11.804,12.334L13,12.334L13,13.999L10.972,14.001Z" style="fill-rule:nonzero;"/><path d="M7,14.002L4.986,14L4.986,3.311L4,3.559L4,1.973L7,1.281L7,14.002Z" style="fill-rule:nonzero;"/><path d="M3,14.002L0.986,14L0.986,3.311L0,3.559L-0,1.973L3,1.281L3,14.002Z" style="fill-rule:nonzero;"/></svg>