<?xml version="1.0" encoding="UTF-8" standalone="no"?><!DOCTYPE svg PUBLIC "-//W3C//DTD SVG 1.1//EN" "http://www.w3.org/Graphics/SVG/1.1/DTD/svg11.dtd"><svg width="18px" height="18px" version="1.1" xmlns="http://www.w3.org/2000/svg" xmlns:xlink="http://www.w3.org/1999/xlink" xml:space="preserve" xmlns:serif="http://www.serif.com/" style="fill-rule:evenodd;clip-rule:evenodd;stroke-linecap:square;stroke-miterlimit:5;"><path d="M11.596,7C10.997,6.223 10.056,5.722 9,5.722C7.191,5.722 5.722,7.191 5.722,9C5.722,10.809 7.191,12.278 9,12.278C10.056,12.278 10.997,11.777 11.596,11" style="fill:none;stroke:#000;stroke-width:2px;"/><path d="M14.719,14.646C13.264,16.1 11.255,17 9.036,17C4.598,17 1,13.402 1,8.964C1,4.526 4.598,0.928 9.036,0.928C13.474,0.928 17.072,4.12 17.072,8.964C17.072,10.976 15.576,12 14,12C12.424,12 12,9.891 12,9.021L12,6" style="fill:none;stroke:#000;stroke-width:2px;"/></svg>